<svg xmlns="http://www.w3.org/2000/svg" viewBox="0 0 187.15 102.8"><defs><style>.cls-1{opacity:0.3;}</style></defs><g id="Calque_2" data-name="Calque 2"><g id="Calque_4" data-name="Calque 4"><path class="cls-1" d="M123.79,18.07V.21c12.74.26,25.45-1.48,37.83,2,13.86,3.87,22.45,16.2,22.61,31.54.15,14.28-8.09,25.55-21.91,30a24.67,24.67,0,0,0-2.3,1.05l27.13,25.14L171.8,102.8c-10.59-11-21.06-21.74-31.48-32.58-5.49-5.7-5.11-5.61-2.16-13.07,2-5.1,4.53-7.22,10.48-7.1C160.38,50.3,168,40.11,165,29.49A15.14,15.14,0,0,0,150.8,18.41c-7.23-.45-14.5-.25-21.76-.33C127.37,18.06,125.69,18.07,123.79,18.07Z"/><path class="cls-1" d="M61.78,99.63V81.42c4.73,0,9.26.28,13.74-.06,13.09-1,22.84-7.13,27.19-19.77s2.47-24.7-7.46-34.54c-6.2-6.15-14.09-8.23-22.64-8.25H61.8V.76C83.65-2,102.57,4,114.25,20.2c11.52,16,12.25,40,1.74,57.18S84.78,103.05,61.78,99.63Z"/><path class="cls-1" d="M0,.38H19.51V40.2H61.69V59.92H19.93c-.11,2-.27,3.49-.27,5,0,10.5-.08,21,0,31.51,0,2.69-.72,3.82-3.62,3.71-5.23-.2-10.48-.06-16.06-.06Z"/></g></g></svg>