<svg xmlns="http://www.w3.org/2000/svg" viewBox="0 0 226.95 225.61"><defs><style>.cls-1{fill:none;stroke:#fff;stroke-miterlimit:10;stroke-width:4px;}.cls-2{fill:#fff;}</style></defs><g id="Calque_2" data-name="Calque 2"><g id="Calque_4" data-name="Calque 4"><ellipse class="cls-1" cx="113.48" cy="112.8" rx="111.48" ry="110.8"/><path class="cls-2" d="M113.48,8.07C55.28,8.07,8.1,55,8.1,112.8S55.28,217.54,113.48,217.54,218.85,170.65,218.85,112.8,171.67,8.07,113.48,8.07Zm-2.4,4a101.47,101.47,0,0,1,39.26,6.86A100.16,100.16,0,0,1,191.84,49a6.25,6.25,0,0,1,1.63,3,76.89,76.89,0,0,1-2.73,27.53,80.47,80.47,0,0,1-25.56,39.95c-4.13,3.52-8.8,6.41-13.75,10,0-2.35-.06-3.83,0-5.31.69-14.29,1-28.56-1-42.79a120.47,120.47,0,0,0-6.78-27.51c-5.93-15.22-15.18-28-28.63-37.52-1.83-1.3-3.7-2.55-5.9-4.06C110.13,12.16,110.6,12.08,111.08,12.07Zm-87,53.25A96.88,96.88,0,0,1,37.74,45.87a101.73,101.73,0,0,1,52-31.15c5.91-1.48,11.3-2,17,1.7,13.76,9,24.62,20.29,31.72,35.07a80,80,0,0,1,8,36.78c-1.44-.84-2.48-1.38-3.45-2-13.57-8.95-27.59-17-42.88-22.77a112.43,112.43,0,0,0-28.89-6.95A79.35,79.35,0,0,0,38.7,59.93c-5.07,1.66-9.91,4-14.87,6.07C23.9,65.85,24,65.58,24.12,65.32ZM111,116.76c-.41-.47-.8-1-1.49-1.78,3.64,0,6.84.09,10,0a8.81,8.81,0,0,0,8-6.4A9.05,9.05,0,0,0,118.64,97c-6.11,0-12.23-.06-18.35,0A13,13,0,0,1,89,91.6c-1-1.3-2.12-2.45-3.56-4.09h2.26l30.65.07a18.48,18.48,0,0,1,18.06,13.18c2.41,7.85-.61,15.93-7.76,20.71l-.78.55,13.72,15.83c-6.43.57-12.29.6-16.76-5S115.59,122.1,111,116.76Zm12.31,21.09c-6.46.56-12.21.48-16.8-5C98,122.57,89,112.65,80.3,102.59c-.28-.31-.52-.67-.91-1.19.65-.05,1.1-.11,1.56-.11l22.45,0a12.6,12.6,0,0,1,10.35,4.66c1.2,1.46,2.47,2.85,3.71,4.28l-.24.4H99.57ZM28.08,167.08a101.1,101.1,0,0,1-15.84-50.26A99.77,99.77,0,0,1,19,76.36,5.21,5.21,0,0,1,20.81,74,65.83,65.83,0,0,1,28,69.67c16-8,32.84-11.06,50.69-8.35a84.39,84.39,0,0,1,30,10.78c-.81.47-1.33.81-1.89,1.09C93.14,79.92,79.85,87.28,67.74,96.54,57.87,104.09,49,112.7,42.06,123A76.85,76.85,0,0,0,28.8,159C28.56,161.48,28.35,164,28.08,167.08Zm47,39a100.36,100.36,0,0,1-41-30.72,3.62,3.62,0,0,1-.68-1.91,75.71,75.71,0,0,1,2.1-24.79C40.58,129,51.34,113,68.15,101.25c2.29-1.61,4.75-3,7.12-4.46,0,3.09.12,5.87,0,8.63a212.88,212.88,0,0,0,1.37,40.38,113.87,113.87,0,0,0,7.11,27.25c4.9,12.09,11.91,22.79,21.94,31.32,3.73,3.17,7.75,6,11.81,9.12A100.8,100.8,0,0,1,75,206.07Zm127.66-45.53c-.21.43-.43.85-.66,1.25a102.53,102.53,0,0,1-22.07,27,108.56,108.56,0,0,1-21.78,14.54,97.65,97.65,0,0,1-27.81,9c-1.5.25-3.4.37-4.61-.31a109.71,109.71,0,0,1-13.94-8.72,80.65,80.65,0,0,1-28.33-42.15,89.16,89.16,0,0,1-3.14-23.86c.78.47,1.12.67,1.44.88,13,8.43,26.24,16.55,40.71,22.38,11.94,4.82,24.18,8.23,37.18,8.82a79,79,0,0,0,37.38-7.06c1.91-.89,3.81-1.82,6.08-2.91C202.89,160,202.81,160.29,202.69,160.54Zm3.2-8.88C194,160,180.45,164.22,166,165.18a76.12,76.12,0,0,1-30.4-3.84c-5.88-2.05-11.52-4.75-17.27-7.16l.13-.78c.2-.12.39-.26.6-.38,10.92-6.2,22.05-12.06,32.69-18.71a112.93,112.93,0,0,0,29.14-26.26c7.23-9.23,12.78-19.36,15.39-30.82,1.34-5.84,2-11.83,3-18.27,1.78,3.3,3.52,6.3,5.07,9.4a99.81,99.81,0,0,1,5.38,76C208.84,147,207.91,150.26,205.89,151.66Z"/></g></g></svg>