<svg xmlns="http://www.w3.org/2000/svg" viewBox="0 0 226.95 226.95"><defs><style>.cls-1{fill:#fff;}.cls-2{fill:none;stroke:#fff;stroke-miterlimit:10;stroke-width:4px;}</style></defs><g id="Calque_2" data-name="Calque 2"><g id="Calque_4" data-name="Calque 4"><path class="cls-1" d="M80.48,88.8c1.44-.85,2.48-1.4,3.45-2,13.57-9,27.59-17.14,42.89-22.92a111.48,111.48,0,0,1,28.89-7,78.82,78.82,0,0,1,32.54,3.43c5.07,1.67,9.92,4,14.87,6.11a5.23,5.23,0,0,0-.29-.68,97.11,97.11,0,0,0-13.62-19.57,101.51,101.51,0,0,0-52-31.34c-5.92-1.49-11.3-2.05-17,1.7-13.77,9-24.63,20.42-31.72,35.29A80.75,80.75,0,0,0,80.48,88.8Zm37.78-16.27c.81.47,1.34.81,1.9,1.09,13.65,6.77,26.94,14.17,39.05,23.5,9.87,7.59,18.7,16.25,25.68,26.61a77.52,77.52,0,0,1,13.26,36.18c.25,2.54.45,5.08.72,8.17a102.17,102.17,0,0,0,15.84-50.56,100.76,100.76,0,0,0-6.77-40.71,5.23,5.23,0,0,0-1.79-2.39A65.26,65.26,0,0,0,199,70.08C183,62,166.16,59,148.3,61.68A84.15,84.15,0,0,0,118.26,72.53ZM27.69,59.31c-1.79,3.31-3.53,6.34-5.08,9.45a101.12,101.12,0,0,0-5.38,76.45c.88,2.62,1.82,5.95,3.84,7.36C33,160.92,46.5,165.2,61,166.17a75.6,75.6,0,0,0,30.4-3.86c5.88-2.07,11.53-4.78,17.28-7.21l-.14-.78c-.2-.13-.39-.26-.6-.38-10.91-6.24-22-12.14-32.69-18.82a113.23,113.23,0,0,1-29.14-26.43c-7.23-9.29-12.78-19.47-15.39-31C29.37,71.81,28.72,65.78,27.69,59.31Zm47.83,70.91c0-2.36.06-3.85,0-5.34-.68-14.37-1-28.73,1-43a121.5,121.5,0,0,1,6.79-27.68C89.2,38.85,98.45,26,111.9,16.41c1.83-1.31,3.7-2.57,5.91-4.09-1-.1-1.46-.17-1.93-.18A100.93,100.93,0,0,0,35.12,49.27a6.23,6.23,0,0,0-1.63,3A77.57,77.57,0,0,0,36.22,80a81,81,0,0,0,25.55,40.2C65.9,123.75,70.58,126.65,75.52,130.22Zm71.09,7.83c-.79.48-1.13.67-1.45.88-13,8.49-26.24,16.65-40.71,22.53-11.94,4.84-24.17,8.27-37.18,8.86a78.32,78.32,0,0,1-37.37-7.1c-1.92-.89-3.82-1.83-6.09-2.92.25.67.33.95.45,1.2q.31.65.66,1.26A103.13,103.13,0,0,0,47,189.9a108.86,108.86,0,0,0,21.79,14.62,96.85,96.85,0,0,0,27.8,9c1.5.26,3.4.38,4.61-.31a107.56,107.56,0,0,0,13.94-8.77,81.06,81.06,0,0,0,28.33-42.41A89.75,89.75,0,0,0,146.61,138.05Zm-37.14,76.73a101,101,0,0,0,83.44-38.38,3.72,3.72,0,0,0,.69-1.92,76.89,76.89,0,0,0-2.11-24.94c-5.12-19.79-15.87-35.85-32.68-47.69-2.3-1.61-4.76-3-7.13-4.48,0,3.11-.12,5.9,0,8.68a214.57,214.57,0,0,1-1.37,40.62,115.07,115.07,0,0,1-7.11,27.42c-4.9,12.17-11.91,22.92-21.94,31.51C117.55,208.79,113.53,211.64,109.47,214.78Z"/><path class="cls-1" d="M80.48,88.8a80.75,80.75,0,0,1,8-37c7.09-14.87,18-26.27,31.72-35.29,5.73-3.75,11.11-3.19,17-1.7a101.51,101.51,0,0,1,52,31.34,97.11,97.11,0,0,1,13.62,19.57,5.23,5.23,0,0,1,.29.68c-5-2.06-9.8-4.44-14.87-6.11a78.82,78.82,0,0,0-32.54-3.43,111.48,111.48,0,0,0-28.89,7c-15.3,5.78-29.32,13.91-42.89,22.92C83,87.4,81.92,88,80.48,88.8Z"/><path class="cls-1" d="M118.26,72.53a84.15,84.15,0,0,1,30-10.85C166.16,59,183,62,199,70.08a65.26,65.26,0,0,1,7.16,4.34,5.23,5.23,0,0,1,1.79,2.39,100.76,100.76,0,0,1,6.77,40.71,102.17,102.17,0,0,1-15.84,50.56c-.27-3.09-.47-5.63-.72-8.17a77.52,77.52,0,0,0-13.26-36.18c-7-10.36-15.81-19-25.68-26.61-12.11-9.33-25.4-16.73-39.05-23.5C119.6,73.34,119.07,73,118.26,72.53Z"/><path class="cls-1" d="M27.69,59.31c1,6.47,1.68,12.5,3,18.37,2.61,11.54,8.16,21.72,15.39,31a113.23,113.23,0,0,0,29.14,26.43C85.87,141.8,97,147.7,107.92,153.94c.21.12.4.25.6.38l.14.78c-5.75,2.43-11.4,5.14-17.28,7.21A75.6,75.6,0,0,1,61,166.17c-14.48-1-28-5.25-39.91-13.6-2-1.41-3-4.74-3.84-7.36a101.12,101.12,0,0,1,5.38-76.45C24.16,65.65,25.9,62.62,27.69,59.31Z"/><path class="cls-1" d="M75.52,130.22c-4.94-3.57-9.62-6.47-13.75-10A81,81,0,0,1,36.22,80a77.57,77.57,0,0,1-2.73-27.7,6.23,6.23,0,0,1,1.63-3,100.93,100.93,0,0,1,80.76-37.13c.47,0,.94.08,1.93.18-2.21,1.52-4.08,2.78-5.91,4.09C98.45,26,89.2,38.85,83.28,54.15a121.5,121.5,0,0,0-6.79,27.68c-1.94,14.32-1.66,28.68-1,43.05C75.58,126.37,75.52,127.86,75.52,130.22Z"/><path class="cls-1" d="M146.61,138.05a89.75,89.75,0,0,1-3.15,24,81.06,81.06,0,0,1-28.33,42.41,107.56,107.56,0,0,1-13.94,8.77c-1.21.69-3.11.57-4.61.31a96.85,96.85,0,0,1-27.8-9A108.86,108.86,0,0,1,47,189.9a103.13,103.13,0,0,1-22.07-27.14q-.34-.62-.66-1.26c-.12-.25-.2-.53-.45-1.2,2.27,1.09,4.17,2,6.09,2.92a78.32,78.32,0,0,0,37.37,7.1c13-.59,25.24-4,37.18-8.86,14.47-5.88,27.68-14,40.71-22.53C145.48,138.72,145.82,138.53,146.61,138.05Z"/><path class="cls-1" d="M109.47,214.78c4.06-3.14,8.08-6,11.81-9.18,10-8.59,17-19.34,21.94-31.51a115.07,115.07,0,0,0,7.11-27.42,214.57,214.57,0,0,0,1.37-40.62c-.14-2.78,0-5.57,0-8.68,2.37,1.48,4.83,2.87,7.13,4.48,16.81,11.84,27.56,27.9,32.68,47.69a76.89,76.89,0,0,1,2.11,24.94,3.72,3.72,0,0,1-.69,1.92,101,101,0,0,1-83.44,38.38Z"/><path class="cls-1" d="M127.74,123.16l12.84,14.91c-6,.54-11.51.56-15.69-4.74s-8.63-10.1-13-15.13c-.38-.44-.75-.9-1.39-1.68,3.41,0,6.4.09,9.39,0a8.28,8.28,0,0,0,7.5-6,8.52,8.52,0,0,0-8.3-10.93c-5.72,0-11.45-.05-17.18,0a12.19,12.19,0,0,1-10.6-5.06c-.91-1.22-2-2.31-3.33-3.85h2.12l28.69.07a17.31,17.31,0,0,1,16.91,12.41c2.26,7.4-.57,15-7.27,19.51Z"/><path class="cls-1" d="M117.79,112.41H101.26l22.18,25.66c-6,.53-11.43.46-15.72-4.74-8-9.65-16.32-19-24.5-28.47-.26-.3-.48-.63-.85-1.13.61,0,1-.1,1.46-.1l21,0a11.77,11.77,0,0,1,9.69,4.39c1.12,1.37,2.31,2.69,3.47,4Z"/><circle class="cls-2" cx="113.48" cy="113.48" r="111.48"/></g></g></svg>